<svg version="1.1" xmlns="http://www.w3.org/2000/svg" xmlns:xlink="http://www.w3.org/1999/xlink" x="0px" y="0px" viewBox="0 0 1198.8 847.6">
	<path class="st1" d="M309.7,833.2c-23.6-4.3-306.8-43.2-285.9-329.8c20.8-286.6,47-372.8,157.1-404.4 C291,67.5,558.6-81.7,768.6,60.2s436.6,269.1,346.7,495.7C1025.4,782.5,1010.7,858,776,846.5C541.4,834.9,421.7,853.7,309.7,833.2z"/>
	<path class="st0" d="M94.8,203.9h431c15.6,0,28.4,12.8,28.4,28.4v11.4c0,15.6-12.8,28.4-28.4,28.4h-431 c-15.6,0-28.4-12.8-28.4-28.4v-11.4C66.4,216.6,79.2,203.9,94.8,203.9z"/>
	<path class="st0" d="M59.5,295.6h172.8c15,0,27.2,12.2,27.2,27.2l0,0c0,15-12.2,27.2-27.2,27.2H59.5 c-15,0-27.2-12.2-27.2-27.2l0,0C32.3,307.9,44.6,295.6,59.5,295.6z"/>
	<path class="st0" d="M27.2,128.3H200c15,0,27.2,12.2,27.2,27.2v0c0,15-12.2,27.2-27.2,27.2H27.2 c-15,0-27.2-12.2-27.2-27.2v0C0,140.6,12.2,128.3,27.2,128.3z"/>
	<path class="st0" d="M118,180.6c8.4,0,15.3,5.2,15.3,11.6c0,6.4-6.8,11.6-15.3,11.6h66.6c-8.4,0-15.3-5.2-15.3-11.6 c0-6.4,6.8-11.6,15.3-11.6H118z"/>
	<path class="st0" d="M96.4,271.3c8.8,0,15.9,5.4,15.9,12.1c0,6.7-7.1,12.1-15.9,12.1h69.5 c-8.8,0-15.9-5.4-15.9-12.1c0-6.7,7.1-12.1,15.9-12.1H96.4z"/>
	<path class="st0" d="M1104,576.6h-431c-15.6,0-28.4-12.8-28.4-28.4v-11.4c0-15.6,12.8-28.4,28.4-28.4h431 c15.6,0,28.4,12.8,28.4,28.4v11.4C1132.4,563.8,1119.6,576.6,1104,576.6z"/>
	<path class="st0" d="M1139.2,484.9H966.4c-15,0-27.2-12.2-27.2-27.2l0,0c0-15,12.2-27.2,27.2-27.2h172.8 c15,0,27.2,12.2,27.2,27.2l0,0C1166.4,472.6,1154.2,484.9,1139.2,484.9z"/>
	<path class="st0" d="M1171.6,652.1H998.8c-15,0-27.2-12.2-27.2-27.2l0,0c0-15,12.2-27.2,27.2-27.2h172.8 c15,0,27.2,12.2,27.2,27.2l0,0C1198.8,639.9,1186.5,652.1,1171.6,652.1z"/>
	<path class="st0" d="M1080.8,599.9c-8.4,0-15.3-5.2-15.3-11.6c0-6.4,6.8-11.6,15.3-11.6h-66.6 c8.4,0,15.3,5.2,15.3,11.6c0,6.4-6.8,11.6-15.3,11.6H1080.8z"/>
	<path class="st0" d="M1102.4,509.2c-8.8,0-15.9-5.4-15.9-12.1c0-6.7,7.1-12.1,15.9-12.1h-69.5 c8.8,0,15.9,5.4,15.9,12.1c0,6.7-7.1,12.1-15.9,12.1H1102.4z"/>
</svg>