<svg version="1.1" xmlns:xlink="http://www.w3.org/1999/xlink" viewBox="250.5 372 111 42.3">
	<polygon points="250.5,405 250.5,372 262.5,372 262.5,377 256,377 256,405"/>
	<polygon points="260.8,388.5 266.5,379.9 272.5,379.9 264.4,392.1 273,405 266.8,405 260.8,395.8 258.7,392.1"/>
	<path d="M301.5,392.7c0,7.5-4.7,12.6-11.9,12.6c-4,0-7-1.6-8.9-4.5v13.5h-5.4v-34.3h5.4v4.3 c1.8-2.9,4.9-4.5,8.8-4.5C296.6,379.9,301.5,385.1,301.5,392.7 M296,392.5c0-4.7-3.2-8.1-7.6-8.1s-7.6,3.4-7.6,8.1 c0,4.9,3.2,8.2,7.6,8.2S296,397.3,296,392.5"/>
	<path d="M328.3,394.4h-19c0.8,3.9,3.8,6.3,7.8,6.3c2.7,0,5.2-1,7.1-2.9l2.9,3.1c-2.5,2.7-6,4.2-10.4,4.2 c-7.7,0-12.8-5.1-12.8-12.7c0-7.6,5.2-12.7,12.7-12.8C325.4,379.5,329,385.3,328.3,394.4 M323.6,390.4c-0.2-4.1-2.9-6.5-7-6.5 c-4,0-6.7,2.5-7.4,6.5H323.6z"/>
	<rect x="331.6" y="379.9" width="5.4" height="25.1"/>
	<polygon points="346.8,400.5 361.5,400.6 361.5,405 340.1,405 340.1,401.3 354.4,384.3 340.5,384.3 340.5,379.9 361.1,379.9 361.1,383.6"/>
</svg>